<?xml version="1.0" encoding="iso-8859-1"?>
<!-- Uploaded to: SVG Repo, www.svgrepo.com, Generator: SVG Repo Mixer Tools -->
<svg height="800px" width="800px" version="1.1" id="Layer_1" xmlns="http://www.w3.org/2000/svg" xmlns:xlink="http://www.w3.org/1999/xlink" 
	 viewBox="0 0 512 512" xml:space="preserve">
<polygon points="512,398.98 0,398.98 0,415.908 25.6,439.548 486.4,439.548 512,415.908 "/>
<path style="fill:#FFFFFF;" d="M48,398.98v-277.6c0-6.64,5.4-12.072,12-12.072h392c6.6,0,12,5.432,12,12.072v277.6"/>
<path d="M472,398.972h-16V121.38c0-2.2-1.832-4.08-4-4.08H60c-2.168,0-4,1.872-4,4.08v277.592H40V121.38
	c0-11.08,8.968-20.08,20-20.08h392c11.032,0,20,9,20,20.08V398.972z"/>
<polygon style="fill:#13B7E6;" points="303.024,415.804 208.984,415.804 192.984,398.98 319.024,398.98 "/>
<polygon style="fill:#FF583E;" points="191.384,160.988 167.776,91.116 106.64,91.116 106.64,72.452 181.176,72.452 
	209.072,155.004 "/>
<polygon points="146.096,145.308 405.36,145.308 355.936,283.956 189.272,283.956 "/>
<g>
	<circle style="fill:#FF583E;" cx="218.408" cy="335.996" r="35.952"/>
	<circle style="fill:#FF583E;" cx="326.848" cy="335.996" r="35.952"/>
</g>
<path style="fill:#32BEA6;" d="M308.368,257.756c-4.872,2.72-13.176,5.44-22.344,5.44c-14.04,0-26.928-5.736-34.944-16.328
	c-3.872-4.872-6.728-11.024-8.024-18.616h-9.312v-10.176h7.872c0-0.712,0-1.576,0-2.44c0-1.432,0.144-2.856,0.144-4.296h-8.024
	v-10.168h9.6c1.856-7.736,5.304-14.32,9.88-19.624c8.168-9.168,19.624-14.608,33.088-14.608c8.736,0,16.328,2.008,21.488,4.296
	l-4.008,16.328c-3.72-1.576-9.584-3.44-15.896-3.44c-6.872,0-13.176,2.296-17.608,7.736c-2.008,2.288-3.584,5.584-4.592,9.312
	h35.672v10.168h-37.824c-0.136,1.44-0.136,3.016-0.136,4.44c0,0.864,0,1.432,0,2.288h37.96v10.176h-35.952
	c1,4.296,2.576,7.592,4.728,10.032c4.576,5.152,11.32,7.296,18.48,7.296c6.584,0,13.312-2.144,16.328-3.72L308.368,257.756z"/>
</svg>